<svg width="478" height="180" viewBox="0 0 478 180" fill="none" xmlns="http://www.w3.org/2000/svg">
<g clip-path="url(#clip0)">
<path d="M68.91 122.4V108H14.3C10.5074 108 6.87014 109.507 4.18837 112.188C1.5066 114.87 0 118.507 0 122.3L0 136.9C0 140.693 1.5066 144.33 4.18837 147.012C6.87014 149.693 10.5074 151.2 14.3 151.2H57.6V165.6H1V180H57.7C59.5779 180 61.4374 179.63 63.1724 178.911C64.9073 178.193 66.4837 177.14 67.8116 175.812C69.1395 174.484 70.1928 172.907 70.9115 171.172C71.6301 169.437 72 167.578 72 165.7V151.1C72 147.307 70.4934 143.67 67.8116 140.988C65.1299 138.307 61.4926 136.8 57.7 136.8H14.4V122.4H68.91Z" fill="black"/>
<path d="M84.25 122.3V165.7C84.2487 167.577 84.6173 169.437 85.3349 171.172C86.0524 172.907 87.1048 174.483 88.4319 175.811C89.759 177.139 91.3348 178.193 93.0691 178.911C94.8035 179.63 96.6626 180 98.54 180H142C143.878 180 145.737 179.63 147.472 178.911C149.207 178.193 150.784 177.14 152.112 175.812C153.44 174.484 154.493 172.907 155.211 171.172C155.93 169.437 156.3 167.578 156.3 165.7V122.3C156.3 120.422 155.93 118.563 155.211 116.828C154.493 115.093 153.44 113.516 152.112 112.188C150.784 110.86 149.207 109.807 147.472 109.089C145.737 108.37 143.878 108 142 108H98.54C96.6626 108 94.8035 108.37 93.0691 109.089C91.3348 109.807 89.759 110.861 88.4319 112.189C87.1048 113.517 86.0524 115.093 85.3349 116.828C84.6173 118.563 84.2487 120.423 84.25 122.3ZM141.85 165.6H98.65V122.4H141.85V165.6Z" fill="black"/>
<path d="M237.42 122.3V180H251.82V156.34H294V180H308.4V122.3C308.401 120.422 308.032 118.562 307.314 116.826C306.596 115.091 305.543 113.514 304.214 112.185C302.886 110.857 301.309 109.804 299.574 109.086C297.838 108.368 295.978 107.999 294.1 108H251.72C249.842 108 247.982 108.37 246.248 109.089C244.513 109.807 242.936 110.86 241.608 112.188C240.28 113.516 239.227 115.093 238.508 116.828C237.79 118.563 237.42 120.422 237.42 122.3ZM294 141.94H251.82V122.4H294V141.94Z" fill="black"/>
<path d="M406 122.3V180H420.4V156.34H462.6V180H477V122.3C477 118.507 475.493 114.87 472.812 112.188C470.13 109.507 466.493 108 462.7 108H420.33C418.45 107.996 416.587 108.363 414.848 109.08C413.11 109.797 411.53 110.85 410.199 112.178C408.868 113.506 407.812 115.084 407.091 116.821C406.371 118.558 406 120.42 406 122.3ZM462.57 141.94H420.43V122.4H462.6L462.57 141.94Z" fill="black"/>
<path d="M378.81 108V165.6H373.05L352.41 114C351.704 112.23 350.483 110.712 348.906 109.642C347.328 108.572 345.466 108 343.56 108H330.74C328.212 108 325.788 109.004 324.001 110.791C322.214 112.578 321.21 115.002 321.21 117.53V180H335.61V122.4H341.37L362 174C362.703 175.77 363.922 177.289 365.498 178.359C367.074 179.428 368.935 180 370.84 180H383.66C386.187 180 388.611 178.996 390.399 177.209C392.186 175.422 393.19 172.998 393.19 170.47V108H378.81Z" fill="black"/>
<path d="M183.46 165.6V108H169.06V165.7C169.06 167.578 169.43 169.437 170.149 171.172C170.867 172.907 171.921 174.484 173.248 175.812C174.576 177.14 176.153 178.193 177.888 178.911C179.623 179.63 181.482 180 183.36 180H226.66V165.6H183.46Z" fill="black"/>
<path fill-rule="evenodd" clip-rule="evenodd" d="M202.7 54.9C202.954 54.6213 203.263 54.3976 203.607 54.2428C203.951 54.088 204.323 54.0054 204.7 54H267.53C267.796 54.0037 268.055 54.0842 268.276 54.2318C268.498 54.3793 268.671 54.5876 268.777 54.8316C268.883 55.0756 268.916 55.345 268.872 55.6073C268.828 55.8695 268.709 56.1136 268.53 56.31L255.21 71.1C254.956 71.3787 254.647 71.6024 254.303 71.7572C253.959 71.912 253.587 71.9946 253.21 72H190.37C190.104 71.9963 189.845 71.9158 189.624 71.7682C189.403 71.6207 189.229 71.4124 189.123 71.1684C189.017 70.9243 188.985 70.655 189.028 70.3927C189.072 70.1305 189.191 69.8864 189.37 69.69L202.7 54.9ZM268.59 42.64C268.769 42.8364 268.888 43.0805 268.932 43.3427C268.976 43.605 268.943 43.8744 268.837 44.1184C268.731 44.3624 268.558 44.5707 268.336 44.7182C268.115 44.8658 267.856 44.9463 267.59 44.95H204.76C204.383 44.9446 204.011 44.862 203.667 44.7072C203.323 44.5524 203.014 44.3287 202.76 44.05L189.32 29.36C189.141 29.1636 189.022 28.9195 188.978 28.6573C188.935 28.395 188.967 28.1256 189.073 27.8816C189.179 27.6376 189.353 27.4293 189.574 27.2818C189.795 27.1342 190.054 27.0537 190.32 27.05L253.17 27C253.547 27.0054 253.919 27.088 254.263 27.2428C254.607 27.3976 254.916 27.6213 255.17 27.9L268.59 42.64ZM202.7 0.9C202.954 0.621276 203.263 0.397611 203.607 0.242816C203.951 0.0880207 204.323 0.00538125 204.7 0L267.53 0.05C267.796 0.0537446 268.055 0.134225 268.276 0.28176C268.498 0.429296 268.671 0.637603 268.777 0.881626C268.883 1.12565 268.916 1.395 268.872 1.65727C268.828 1.91954 268.709 2.16357 268.53 2.36L255.21 17.1C254.956 17.3787 254.647 17.6024 254.303 17.7572C253.959 17.912 253.587 17.9946 253.21 18H190.33C190.064 17.9963 189.805 17.9158 189.584 17.7682C189.363 17.6207 189.189 17.4124 189.083 17.1684C188.977 16.9244 188.945 16.655 188.988 16.3927C189.032 16.1305 189.151 15.8864 189.33 15.69L202.7 0.9Z" fill="url(#paint0_linear)"/>
</g>
<defs>
<linearGradient id="paint0_linear" x1="191.38" y1="73.57" x2="266.52" y2="-1.57" gradientUnits="userSpaceOnUse">
<stop stop-color="#9945FF"/>
<stop offset="0.14" stop-color="#8A53F4"/>
<stop offset="0.42" stop-color="#6377D6"/>
<stop offset="0.79" stop-color="#24B0A7"/>
<stop offset="0.99" stop-color="#00D18C"/>
<stop offset="1" stop-color="#00D18C"/>
</linearGradient>
<clipPath id="clip0">
<rect width="478" height="180" fill="white"/>
</clipPath>
</defs>
</svg>
