<svg xmlns="http://www.w3.org/2000/svg" viewBox="0 0 300 190.33"><defs><style>.a39a7eb2-1df1-484b-858a-7654ac5576a1{fill:#fff;}</style></defs><g id="e276f189-c9a7-4fe6-b69c-d1261c32c35a" data-name="Layer 2"><g id="b8fdc215-bd7a-46f1-82a0-dcbde6cea1dc" data-name="Layer 1"><polygon class="a39a7eb2-1df1-484b-858a-7654ac5576a1" points="3.98 139.39 3.98 41.51 149.57 4.11 296.02 43.1 296.02 139.39 3.98 139.39"/><path d="M300,143.37H0V38.43L149.59,0,300,40.05Zm-292-8H292V46.16L149.55,8.22,8,44.6Z"/><path d="M48.05,127.65l.07-69L15.56,65.28V50l89.53-22.65c0,7.91,0,11.87,0,19.78L72.49,53.71q-.06,37-.13,73.94Z"/><path d="M111.79,127.65l.06-20.13,20.85-1q.11-32.52.2-65.05L112,45.68l0-20.13c25.36-6.42,39.61-9.2,65.41-2.72,0,8.27,0,12.4.06,20.67l-20.89-4.22.24,66.67,20.86,1c0,8.27,0,12.4.06,20.66Z"/><path d="M261,127.65l0-32.09c-14.07-11.3-27.57-23.07-40.76-35.38l.14,67.47H196.05q-.15-50.1-.29-100.21l24.4,6.13c13.2,13.24,26.72,26,40.8,38.28l0-28L285.33,50v77.69Z"/><polygon points="284.88 144.16 284.88 174.68 150.4 186.34 15.12 174.18 15.12 144.16 284.88 144.16"/><path d="M150.39,190.33,11.14,177.82V140.19H288.86v38.14ZM19.1,170.55l131.3,11.8L280.9,171V148.14H19.1Z"/><path class="a39a7eb2-1df1-484b-858a-7654ac5576a1" d="M41.06,170.51V147.65l-17.23-.21v-3.52h43c0,1.61,0,2.42,0,4l-17.22-.2v23.47Z"/><path class="a39a7eb2-1df1-484b-858a-7654ac5576a1" d="M80.54,173.78c-3.45-2-5.17-3-8.62-4.92,0-8.29,0-12.44,0-20.73,3.44-1.64,5.17-2.48,8.61-4.21h25.75c3.45,1.85,5.17,2.79,8.61,4.72v23.27c-3.45,1.65-5.17,2.45-8.61,4Zm25.84-23.36c-1.5-.83-2.26-1.25-3.76-2.06l-18.41-.21L80.46,150v17.74l3.75,2.14,18.42,1.32,3.75-1.75C106.37,161.83,106.37,158,106.38,150.42Z"/><path class="a39a7eb2-1df1-484b-858a-7654ac5576a1" d="M160,178.19a185.73,185.73,0,0,1-25.91-14.86c0,6,0,8.94,0,14.9l-8.52-.71q0-16.8,0-33.6h8.53c0,6,0,8.94,0,14.9,8.82-4.64,17.33-9.87,25.93-14.9h8.53c0,1.88,0,2.82,0,4.7l-4.86.06c-8.59,5-12.89,8-21.49,12.73,8.59,5.39,12.89,7.43,21.48,11.73l4.86-.34v4.7Z"/><path class="a39a7eb2-1df1-484b-858a-7654ac5576a1" d="M177,176.82q0-16.45,0-32.9h39.56v4.17l-31,.34v9.35l22.51-.78v4.26l-22.51,1v9.34l31.05-2.14c0,1.66,0,2.5,0,4.16Z"/><path class="a39a7eb2-1df1-484b-858a-7654ac5576a1" d="M260,170.17v-9.63c-8.74-3.37-17.42-7.06-25.92-11,0,9.08,0,13.62,0,22.7l-8.53.68v-29h8.53c8.49,4.07,17.18,7.89,25.92,11.4v-11.4h8.52v25.57Z"/></g></g></svg>